<?xml version="1.0" encoding="UTF-8"?>
<svg id="Layer_2" data-name="Layer 2" xmlns="http://www.w3.org/2000/svg" viewBox="0 0 370.22 123.42">
  <defs>
    <style>
      .cls-1 {
        stroke-width: 0px;
      }

      .cls-1, .cls-2 {
        fill: #000;
      }

      .cls-2 {
        font-family: Consolas-Bold, Consolas;
        font-size: 110.65px;
        font-weight: 700;
      }
    </style>
  </defs>
  <g id="Layer_1-2" data-name="Layer 1">
    <text class="cls-2" transform="translate(2.89 90.63)"><tspan x="0" y="0">&lt;lou/&gt;</tspan></text>
    <g>
      <path class="cls-1" d="M11.4,18.73H0V7.32h11.4v11.4ZM1,17.73h9.4v-9.4H1v9.4Z"/>
      <path class="cls-1" d="M11.4,108.95H0v-11.4h11.4v11.4ZM1,107.95h9.4v-9.4H1v9.4Z"/>
    </g>
    <g>
      <path class="cls-1" d="M370.22,18.73h-11.4V7.32h11.4v11.4ZM359.82,17.73h9.4v-9.4h-9.4v9.4Z"/>
      <path class="cls-1" d="M370.22,108.95h-11.4v-11.4h11.4v11.4ZM359.82,107.95h9.4v-9.4h-9.4v9.4Z"/>
    </g>
    <g>
      <path class="cls-1" d="M190.81,18.73h-11.4V7.32h11.4v11.4ZM180.41,17.73h9.4v-9.4h-9.4v9.4Z"/>
      <path class="cls-1" d="M190.81,108.95h-11.4v-11.4h11.4v11.4ZM180.41,107.95h9.4v-9.4h-9.4v9.4Z"/>
    </g>
    <rect class="cls-1" x="11.06" y="12.4" width="168.78" height="1"/>
    <rect class="cls-1" x="-33.92" y="57.39" width="79.08" height="1" transform="translate(63.52 52.27) rotate(90)"/>
    <rect class="cls-1" x="325.3" y="57.39" width="79.08" height="1" transform="translate(422.73 -306.94) rotate(90)"/>
    <rect class="cls-1" x="190.84" y="12.4" width="168.78" height="1"/>
    <rect class="cls-1" x="11.06" y="102.88" width="168.78" height="1"/>
    <rect class="cls-1" x="190.84" y="102.88" width="168.78" height="1"/>
  </g>
</svg>